Coordinates
version=1
nRows=11
nColumns=40
inDegrees=yes

Units are S.I. units (second, meters, Newtons, ...)
If the header above contains a line with 'inDegrees', this indicates whether rotational values are in degrees (yes) or radians (no).

endheader
time	pelvis_tilt	pelvis_list	pelvis_rotation	pelvis_tx	pelvis_ty	pelvis_tz	hip_flexion_r	hip_adduction_r	hip_rotation_r	knee_angle_r	knee_angle_r_beta	ankle_angle_r	subtalar_angle_r	mtp_angle_r	hip_flexion_l	hip_adduction_l	hip_rotation_l	knee_angle_l	knee_angle_l_beta	ankle_angle_l	subtalar_angle_l	mtp_angle_l	lumbar_extension	lumbar_bending	lumbar_rotation	arm_flex_r	arm_add_r	arm_rot_r	elbow_flex_r	pro_sup_r	wrist_flex_r	wrist_dev_r	arm_flex_l	arm_add_l	arm_rot_l	elbow_flex_l	pro_sup_l	wrist_flex_l	wrist_dev_l
      5.17500000	    -17.68418221	      5.87935308	      3.88430021	     -0.45599517	      0.69961371	     -0.72678682	     76.14708044	     -3.99097684	     -3.44814238	     93.89507502	      1.63877821	     24.16774478	      0.00000000	      0.00000000	     86.89306352	     -2.58671849	    -12.72184827	     35.30192460	      0.61613482	    -23.35248190	      0.00000000	      0.00000000	     -9.98472078	     -4.20229183	     -6.59847502	     89.97185655	      0.51830468	      9.17549031	     55.11945603	     62.61725583	      0.00000000	      0.00000000	     89.96463185	     -7.52617889	      4.85011682	     53.21971524	     67.15408814	      0.00000000	      0.00000000
      5.18000000	    -17.70668559	      5.88189001	      3.91951524	     -0.45614390	      0.70092562	     -0.72685816	     76.03599943	     -4.01658350	     -3.42773296	     93.64156368	      1.63435360	     24.05601838	      0.00000000	      0.00000000	     86.86726703	     -2.55531080	    -12.70787157	     35.36574534	      0.61724870	    -23.29789276	      0.00000000	      0.00000000	     -9.96814546	     -4.20816781	     -6.60182748	     89.97187136	      0.47290602	      9.15096276	     55.09998799	     62.61702853	      0.00000000	      0.00000000	     89.96462007	     -7.50587676	      4.86521917	     53.24496972	     67.18555017	      0.00000000	      0.00000000
      5.18500000	    -17.71901948	      5.86761335	      3.95902989	     -0.45643242	      0.70232925	     -0.72686685	     75.92237150	     -4.02304560	     -3.42087259	     93.38556747	      1.62988563	     23.96039725	      0.00000000	      0.00000000	     86.83561515	     -2.52821270	    -12.72450740	     35.41133224	      0.61804434	    -23.24146636	      0.00000000	      0.00000000	     -9.95647713	     -4.20982549	     -6.65320684	     89.97186035	      0.46744255	      9.13393592	     55.12266676	     62.61855046	      0.00000000	      0.00000000	     89.96466352	     -7.49913719	      4.87386843	     53.24001635	     67.21454357	      0.00000000	      0.00000000
      5.19000000	    -17.75550341	      5.85902349	      3.97806525	     -0.45652991	      0.70365916	     -0.72688548	     75.80645569	     -4.05428899	     -3.45474582	     93.09672500	      1.62484437	     23.85066606	      0.00000000	      0.00000000	     86.81647704	     -2.52331011	    -12.75602663	     35.45189009	      0.61875221	    -23.18706464	      0.00000000	      0.00000000	     -9.91370535	     -4.21822983	     -6.65382673	     89.97186126	      0.42537341	      9.11051873	     55.11703899	     62.61766245	      0.00000000	      0.00000000	     89.96464447	     -7.48558756	      4.88465649	     53.25488506	     67.24211084	      0.00000000	      0.00000000
      5.19500000	    -17.76936103	      5.81881337	      4.02153726	     -0.45662291	      0.70494928	     -0.72690332	     75.67455918	     -4.06389870	     -3.48560835	     92.84441234	      1.62044069	     23.73132992	      0.00000000	      0.00000000	     86.78750779	     -2.52059154	    -12.80851501	     35.48969722	      0.61941207	    -23.13984296	      0.00000000	      0.00000000	     -9.89055109	     -4.18413182	     -6.68026024	     89.97179798	      0.40837407	      9.11357773	     55.12079246	     62.62386575	      0.00000000	      0.00000000	     89.96465582	     -7.47039499	      4.90345985	     53.25625116	     67.28189905	      0.00000000	      0.00000000
      5.20000000	    -17.78620614	      5.80642483	      4.07862604	     -0.45682653	      0.70649485	     -0.72695890	     75.54165322	     -4.08339631	     -3.47277179	     92.55533666	      1.61539536	     23.62820117	      0.00000000	      0.00000000	     86.74161572	     -2.47865460	    -12.85087934	     35.51830823	      0.61991142	    -23.12321743	      0.00000000	      0.00000000	     -9.87686018	     -4.17807469	     -6.72661239	     89.97181197	      0.37876275	      9.10107557	     55.12383891	     62.62398655	      0.00000000	      0.00000000	     89.96464490	     -7.46724511	      4.91598173	     53.25474262	     67.31041210	      0.00000000	      0.00000000
      5.20500000	    -17.79682439	      5.78036738	      4.11229587	     -0.45687939	      0.70782675	     -0.72694330	     75.40301037	     -4.11384482	     -3.52319186	     92.29756754	      1.61089645	     23.53015701	      0.00000000	      0.00000000	     86.71622367	     -2.46324158	    -12.92885633	     35.53401727	      0.62018560	    -23.08354826	      0.00000000	      0.00000000	     -9.85039018	     -4.17520618	     -6.74729958	     89.97177724	      0.31571883	      9.06851880	     55.10153908	     62.62583253	      0.00000000	      0.00000000	     89.96461236	     -7.43678825	      4.94656277	     53.25753462	     67.33944168	      0.00000000	      0.00000000
      5.21000000	    -17.82621741	      5.76930454	      4.17250120	     -0.45704953	      0.70927514	     -0.72692643	     75.27254555	     -4.15945432	     -3.54554491	     92.00535086	      1.60579630	     23.41840054	      0.00000000	      0.00000000	     86.68521534	     -2.46565525	    -13.00099884	     35.60324122	      0.62139378	    -23.07103522	      0.00000000	      0.00000000	     -9.81712287	     -4.17095453	     -6.77332253	     89.97174691	      0.31990240	      9.07395618	     55.09902478	     62.62801935	      0.00000000	      0.00000000	     89.96461734	     -7.42098231	      4.96874343	     53.22980710	     67.37070319	      0.00000000	      0.00000000
      5.21500000	    -17.79828769	      5.72145212	      4.22633686	     -0.45725942	      0.71087129	     -0.72693524	     75.07310125	     -4.17118660	     -3.57200864	     91.68754892	      1.60024961	     23.26888061	      0.00000000	      0.00000000	     86.61332089	     -2.46966340	    -13.09314369	     35.64832214	      0.62218059	    -23.11858420	      0.00000000	      0.00000000	     -9.84783455	     -4.12241548	     -6.82996683	     89.97172248	      0.28187415	      9.06819499	     55.07776256	     62.63134717	      0.00000000	      0.00000000	     89.96462870	     -7.41966694	      4.99477401	     53.21429881	     67.41170684	      0.00000000	      0.00000000
      5.22000000	    -17.77928095	      5.72455255	      4.24482252	     -0.45728666	      0.71239499	     -0.72686860	     74.89388696	     -4.19014941	     -3.59797623	     91.41821265	      1.59554881	     23.15032627	      0.00000000	      0.00000000	     86.49974131	     -2.45855659	    -13.11411356	     35.63338874	      0.62191996	    -23.26077538	      0.00000000	      0.00000000	     -9.85746919	     -4.14515907	     -6.82142342	     89.97172951	      0.24549871	      9.05684774	     55.02058669	     62.63135285	      0.00000000	      0.00000000	     89.96463674	     -7.40749962	      5.01631426	     53.21069079	     67.45027437	      0.00000000	      0.00000000
      5.22500000	    -17.79814273	      5.72562036	      4.31305670	     -0.45737649	      0.71383720	     -0.72693585	     74.75958138	     -4.24390578	     -3.58609599	     91.13396731	      1.59058779	     23.05222824	      0.00000000	      0.00000000	     86.46726610	     -2.43400937	    -13.18147242	     35.67153097	      0.62258566	    -23.30154686	      0.00000000	      0.00000000	     -9.82887811	     -4.13645110	     -6.87233290	     89.97169342	      0.21744125	      9.05593556	     55.04565393	     62.63431530	      0.00000000	      0.00000000	     89.96460279	     -7.40254565	      5.03910406	     53.18186659	     67.47747474	      0.00000000	      0.00000000
